<mxfile host="Electron" agent="Mozilla/5.0 (Windows NT 10.0; Win64; x64) AppleWebKit/537.36 (KHTML, like Gecko) draw.io/26.2.2 Chrome/134.0.6998.178 Electron/35.1.2 Safari/537.36" version="26.2.2">
  <diagram name="Page-1" id="2YBvvXClWsGukQMizWep">
    <mxGraphModel dx="788" dy="524" grid="1" gridSize="10" guides="1" tooltips="1" connect="1" arrows="1" fold="1" page="1" pageScale="1" pageWidth="850" pageHeight="1100" math="0" shadow="0">
      <root>
        <mxCell id="0" />
        <mxCell id="1" parent="0" />
        <mxCell id="TiX2ptux1zsR3n47_rzX-5" style="edgeStyle=orthogonalEdgeStyle;rounded=0;orthogonalLoop=1;jettySize=auto;html=1;exitX=0.5;exitY=1;exitDx=0;exitDy=0;" parent="1" source="TiX2ptux1zsR3n47_rzX-3" target="TiX2ptux1zsR3n47_rzX-6" edge="1">
          <mxGeometry relative="1" as="geometry">
            <mxPoint x="385" y="160" as="targetPoint" />
          </mxGeometry>
        </mxCell>
        <mxCell id="TiX2ptux1zsR3n47_rzX-3" value="" style="ellipse;html=1;shape=startState;fillColor=#000000;strokeColor=#ff0000;" parent="1" vertex="1">
          <mxGeometry x="370" y="90" width="30" height="30" as="geometry" />
        </mxCell>
        <mxCell id="TiX2ptux1zsR3n47_rzX-7" style="edgeStyle=orthogonalEdgeStyle;rounded=0;orthogonalLoop=1;jettySize=auto;html=1;exitX=0.5;exitY=1;exitDx=0;exitDy=0;" parent="1" source="TiX2ptux1zsR3n47_rzX-6" target="TiX2ptux1zsR3n47_rzX-8" edge="1">
          <mxGeometry relative="1" as="geometry">
            <mxPoint x="385" y="230" as="targetPoint" />
          </mxGeometry>
        </mxCell>
        <mxCell id="TiX2ptux1zsR3n47_rzX-6" value="Enter" style="rounded=1;whiteSpace=wrap;html=1;arcSize=40;fontColor=#000000;fillColor=#ffffc0;strokeColor=#ff0000;" parent="1" vertex="1">
          <mxGeometry x="325" y="150" width="120" height="40" as="geometry" />
        </mxCell>
        <mxCell id="TiX2ptux1zsR3n47_rzX-9" style="edgeStyle=orthogonalEdgeStyle;rounded=0;orthogonalLoop=1;jettySize=auto;html=1;exitX=0.5;exitY=1;exitDx=0;exitDy=0;" parent="1" source="TiX2ptux1zsR3n47_rzX-8" target="TiX2ptux1zsR3n47_rzX-12" edge="1">
          <mxGeometry relative="1" as="geometry">
            <mxPoint x="385" y="310" as="targetPoint" />
          </mxGeometry>
        </mxCell>
        <mxCell id="TiX2ptux1zsR3n47_rzX-8" value="Search Job Listings" style="rounded=1;whiteSpace=wrap;html=1;arcSize=40;fontColor=#000000;fillColor=#ffffc0;strokeColor=#ff0000;" parent="1" vertex="1">
          <mxGeometry x="325" y="230" width="120" height="40" as="geometry" />
        </mxCell>
        <mxCell id="TiX2ptux1zsR3n47_rzX-13" style="edgeStyle=orthogonalEdgeStyle;rounded=0;orthogonalLoop=1;jettySize=auto;html=1;exitX=0.5;exitY=1;exitDx=0;exitDy=0;" parent="1" source="TiX2ptux1zsR3n47_rzX-12" target="TiX2ptux1zsR3n47_rzX-14" edge="1">
          <mxGeometry relative="1" as="geometry">
            <mxPoint x="385" y="390" as="targetPoint" />
          </mxGeometry>
        </mxCell>
        <mxCell id="TiX2ptux1zsR3n47_rzX-12" value="View Job Details" style="rounded=1;whiteSpace=wrap;html=1;arcSize=40;fontColor=#000000;fillColor=#ffffc0;strokeColor=#ff0000;" parent="1" vertex="1">
          <mxGeometry x="325" y="310" width="120" height="40" as="geometry" />
        </mxCell>
        <mxCell id="TiX2ptux1zsR3n47_rzX-15" style="edgeStyle=orthogonalEdgeStyle;rounded=0;orthogonalLoop=1;jettySize=auto;html=1;exitX=0.5;exitY=1;exitDx=0;exitDy=0;" parent="1" source="TiX2ptux1zsR3n47_rzX-14" target="TiX2ptux1zsR3n47_rzX-16" edge="1">
          <mxGeometry relative="1" as="geometry">
            <mxPoint x="385" y="470" as="targetPoint" />
          </mxGeometry>
        </mxCell>
        <mxCell id="TiX2ptux1zsR3n47_rzX-14" value="Fill Application Form" style="rounded=1;whiteSpace=wrap;html=1;arcSize=40;fontColor=#000000;fillColor=#ffffc0;strokeColor=#ff0000;" parent="1" vertex="1">
          <mxGeometry x="325" y="390" width="120" height="40" as="geometry" />
        </mxCell>
        <mxCell id="TiX2ptux1zsR3n47_rzX-17" style="edgeStyle=orthogonalEdgeStyle;rounded=0;orthogonalLoop=1;jettySize=auto;html=1;exitX=0.5;exitY=1;exitDx=0;exitDy=0;" parent="1" source="TiX2ptux1zsR3n47_rzX-16" target="TiX2ptux1zsR3n47_rzX-18" edge="1">
          <mxGeometry relative="1" as="geometry">
            <mxPoint x="385" y="540" as="targetPoint" />
          </mxGeometry>
        </mxCell>
        <mxCell id="TiX2ptux1zsR3n47_rzX-23" style="edgeStyle=orthogonalEdgeStyle;rounded=0;orthogonalLoop=1;jettySize=auto;html=1;exitX=1;exitY=0.5;exitDx=0;exitDy=0;" parent="1" source="TiX2ptux1zsR3n47_rzX-16" target="TiX2ptux1zsR3n47_rzX-24" edge="1">
          <mxGeometry relative="1" as="geometry">
            <mxPoint x="450" y="485" as="targetPoint" />
          </mxGeometry>
        </mxCell>
        <mxCell id="TiX2ptux1zsR3n47_rzX-16" value="Valid?" style="rhombus;" parent="1" vertex="1">
          <mxGeometry x="370" y="470" width="30" height="30" as="geometry" />
        </mxCell>
        <mxCell id="TiX2ptux1zsR3n47_rzX-19" style="edgeStyle=orthogonalEdgeStyle;rounded=0;orthogonalLoop=1;jettySize=auto;html=1;exitX=0.5;exitY=1;exitDx=0;exitDy=0;" parent="1" source="TiX2ptux1zsR3n47_rzX-18" target="TiX2ptux1zsR3n47_rzX-20" edge="1">
          <mxGeometry relative="1" as="geometry">
            <mxPoint x="385" y="610" as="targetPoint" />
          </mxGeometry>
        </mxCell>
        <mxCell id="TiX2ptux1zsR3n47_rzX-18" value="Submit Application" style="rounded=1;whiteSpace=wrap;html=1;arcSize=40;fontColor=#000000;fillColor=#ffffc0;strokeColor=#ff0000;" parent="1" vertex="1">
          <mxGeometry x="325" y="530" width="120" height="40" as="geometry" />
        </mxCell>
        <mxCell id="TiX2ptux1zsR3n47_rzX-20" value="" style="ellipse;html=1;shape=endState;fillColor=#000000;strokeColor=#ff0000;" parent="1" vertex="1">
          <mxGeometry x="370" y="610" width="30" height="30" as="geometry" />
        </mxCell>
        <mxCell id="TiX2ptux1zsR3n47_rzX-25" style="edgeStyle=orthogonalEdgeStyle;rounded=0;orthogonalLoop=1;jettySize=auto;html=1;exitX=0.5;exitY=0;exitDx=0;exitDy=0;entryX=1;entryY=0.5;entryDx=0;entryDy=0;" parent="1" source="TiX2ptux1zsR3n47_rzX-24" target="TiX2ptux1zsR3n47_rzX-14" edge="1">
          <mxGeometry relative="1" as="geometry" />
        </mxCell>
        <mxCell id="TiX2ptux1zsR3n47_rzX-24" value="Fix Application Issues" style="rounded=1;whiteSpace=wrap;html=1;arcSize=40;fontColor=#000000;fillColor=#ffffc0;strokeColor=#ff0000;" parent="1" vertex="1">
          <mxGeometry x="490" y="465" width="120" height="40" as="geometry" />
        </mxCell>
        <mxCell id="TiX2ptux1zsR3n47_rzX-26" value="&lt;font style=&quot;font-size: 11px;&quot;&gt;Yes&lt;/font&gt;" style="text;html=1;align=center;verticalAlign=middle;resizable=0;points=[];autosize=1;strokeColor=none;fillColor=none;" parent="1" vertex="1">
          <mxGeometry x="350" y="498" width="40" height="30" as="geometry" />
        </mxCell>
        <mxCell id="TiX2ptux1zsR3n47_rzX-27" value="&lt;font style=&quot;font-size: 11px;&quot;&gt;No&lt;/font&gt;" style="text;html=1;align=center;verticalAlign=middle;resizable=0;points=[];autosize=1;strokeColor=none;fillColor=none;" parent="1" vertex="1">
          <mxGeometry x="400" y="458" width="40" height="30" as="geometry" />
        </mxCell>
        <mxCell id="CdDik5S-LJ5LV29iL8N8-1" value="User accesses job application" style="text;html=1;align=center;verticalAlign=middle;resizable=0;points=[];autosize=1;strokeColor=none;fillColor=none;" vertex="1" parent="1">
          <mxGeometry x="375" y="120" width="180" height="30" as="geometry" />
        </mxCell>
        <mxCell id="CdDik5S-LJ5LV29iL8N8-2" value="User navigates to search" style="text;html=1;align=center;verticalAlign=middle;resizable=0;points=[];autosize=1;strokeColor=none;fillColor=none;" vertex="1" parent="1">
          <mxGeometry x="375" y="200" width="160" height="30" as="geometry" />
        </mxCell>
        <mxCell id="CdDik5S-LJ5LV29iL8N8-3" value="User selects job" style="text;html=1;align=center;verticalAlign=middle;resizable=0;points=[];autosize=1;strokeColor=none;fillColor=none;" vertex="1" parent="1">
          <mxGeometry x="375" y="278" width="110" height="30" as="geometry" />
        </mxCell>
        <mxCell id="CdDik5S-LJ5LV29iL8N8-4" value="User initiates application" style="text;html=1;align=center;verticalAlign=middle;resizable=0;points=[];autosize=1;strokeColor=none;fillColor=none;" vertex="1" parent="1">
          <mxGeometry x="380" y="360" width="150" height="30" as="geometry" />
        </mxCell>
        <mxCell id="CdDik5S-LJ5LV29iL8N8-6" value="Corrections submitted" style="text;html=1;align=center;verticalAlign=middle;resizable=0;points=[];autosize=1;strokeColor=none;fillColor=none;" vertex="1" parent="1">
          <mxGeometry x="550" y="435" width="140" height="30" as="geometry" />
        </mxCell>
        <mxCell id="CdDik5S-LJ5LV29iL8N8-7" value="Application completed" style="text;html=1;align=center;verticalAlign=middle;resizable=0;points=[];autosize=1;strokeColor=none;fillColor=none;" vertex="1" parent="1">
          <mxGeometry x="375" y="580" width="140" height="30" as="geometry" />
        </mxCell>
      </root>
    </mxGraphModel>
  </diagram>
</mxfile>
